<mxfile host="Electron" modified="2023-10-17T09:49:40.263Z" agent="Mozilla/5.0 (Windows NT 10.0; Win64; x64) AppleWebKit/537.36 (KHTML, like Gecko) draw.io/21.4.0 Chrome/112.0.5615.204 Electron/24.5.1 Safari/537.36" etag="D2SMBjpHuxApqhlkrxeP" version="21.4.0" type="device">
  <diagram name="Page-1" id="c_x3nn40oHy5HrwsD6OF">
    <mxGraphModel dx="414" dy="242" grid="1" gridSize="10" guides="1" tooltips="1" connect="1" arrows="1" fold="1" page="1" pageScale="1" pageWidth="850" pageHeight="1100" math="0" shadow="0">
      <root>
        <mxCell id="0" />
        <mxCell id="1" parent="0" />
        <mxCell id="ZvBxzl65H64Q5XOjN3YQ-1" value="" style="rounded=0;whiteSpace=wrap;html=1;" parent="1" vertex="1">
          <mxGeometry x="40" y="40" width="760" height="440" as="geometry" />
        </mxCell>
        <mxCell id="iVOFplejZTz1ZxkQ45nb-1" value="" style="rounded=0;whiteSpace=wrap;html=1;" parent="1" vertex="1">
          <mxGeometry x="70" y="60" width="140" height="400" as="geometry" />
        </mxCell>
        <mxCell id="iVOFplejZTz1ZxkQ45nb-2" value="&lt;font style=&quot;font-size: 22px;&quot;&gt;&lt;b style=&quot;font-size: 22px;&quot;&gt;TRANG QUẢN LÝ CRUD ...&lt;/b&gt;&lt;/font&gt;" style="text;html=1;strokeColor=none;fillColor=none;align=center;verticalAlign=middle;whiteSpace=wrap;rounded=0;fontSize=22;" parent="1" vertex="1">
          <mxGeometry x="260" y="92.5" width="280" height="50" as="geometry" />
        </mxCell>
        <mxCell id="iVOFplejZTz1ZxkQ45nb-4" value="Tổng quan" style="text;html=1;strokeColor=none;fillColor=none;align=center;verticalAlign=middle;whiteSpace=wrap;rounded=0;fontSize=16;fontStyle=1" parent="1" vertex="1">
          <mxGeometry x="90" y="75" width="100" height="40" as="geometry" />
        </mxCell>
        <mxCell id="iVOFplejZTz1ZxkQ45nb-5" value="Hóa đơn" style="text;html=1;strokeColor=none;fillColor=none;align=center;verticalAlign=middle;whiteSpace=wrap;rounded=0;fontSize=16;fontStyle=1" parent="1" vertex="1">
          <mxGeometry x="90" y="120" width="100" height="40" as="geometry" />
        </mxCell>
        <mxCell id="iVOFplejZTz1ZxkQ45nb-6" value="Tài khoản" style="text;html=1;strokeColor=none;fillColor=none;align=center;verticalAlign=middle;whiteSpace=wrap;rounded=0;fontSize=16;fontStyle=1" parent="1" vertex="1">
          <mxGeometry x="90" y="160" width="100" height="40" as="geometry" />
        </mxCell>
        <mxCell id="iVOFplejZTz1ZxkQ45nb-7" value="Sản phẩm" style="text;html=1;strokeColor=none;fillColor=none;align=center;verticalAlign=middle;whiteSpace=wrap;rounded=0;fontSize=16;fontStyle=1" parent="1" vertex="1">
          <mxGeometry x="90" y="200" width="100" height="40" as="geometry" />
        </mxCell>
        <mxCell id="iVOFplejZTz1ZxkQ45nb-8" value="Top sản phẩm" style="text;html=1;strokeColor=none;fillColor=none;align=center;verticalAlign=middle;whiteSpace=wrap;rounded=0;fontSize=16;fontStyle=1" parent="1" vertex="1">
          <mxGeometry x="90" y="240" width="100" height="40" as="geometry" />
        </mxCell>
        <mxCell id="iVOFplejZTz1ZxkQ45nb-9" value="Top khách hàng" style="text;html=1;strokeColor=none;fillColor=none;align=center;verticalAlign=middle;whiteSpace=wrap;rounded=0;fontSize=16;fontStyle=1" parent="1" vertex="1">
          <mxGeometry x="90" y="290" width="100" height="40" as="geometry" />
        </mxCell>
        <mxCell id="iVOFplejZTz1ZxkQ45nb-10" value="Top nhân viên" style="text;html=1;strokeColor=none;fillColor=none;align=center;verticalAlign=middle;whiteSpace=wrap;rounded=0;fontSize=16;fontStyle=1" parent="1" vertex="1">
          <mxGeometry x="90" y="340" width="100" height="40" as="geometry" />
        </mxCell>
        <mxCell id="iVOFplejZTz1ZxkQ45nb-11" value="Nhà cung cấp" style="text;html=1;strokeColor=none;fillColor=none;align=center;verticalAlign=middle;whiteSpace=wrap;rounded=0;fontSize=16;fontStyle=1" parent="1" vertex="1">
          <mxGeometry x="90" y="390" width="100" height="40" as="geometry" />
        </mxCell>
        <mxCell id="iVOFplejZTz1ZxkQ45nb-15" value="..." style="text;html=1;strokeColor=none;fillColor=none;align=center;verticalAlign=middle;whiteSpace=wrap;rounded=0;fontSize=20;fontStyle=1" parent="1" vertex="1">
          <mxGeometry x="110" y="430" width="60" height="30" as="geometry" />
        </mxCell>
        <mxCell id="QVEl6gQr9pVJd_JRe7iK-1" value="Thêm" style="rounded=0;whiteSpace=wrap;html=1;fontStyle=1;fontSize=16;" parent="1" vertex="1">
          <mxGeometry x="660" y="107.5" width="80" height="35" as="geometry" />
        </mxCell>
        <mxCell id="QVEl6gQr9pVJd_JRe7iK-2" value="Xuất Excel" style="rounded=0;whiteSpace=wrap;html=1;fontStyle=1;fontSize=16;" parent="1" vertex="1">
          <mxGeometry x="610" y="160" width="130" height="35" as="geometry" />
        </mxCell>
        <mxCell id="QVEl6gQr9pVJd_JRe7iK-3" value="" style="rounded=0;whiteSpace=wrap;html=1;" parent="1" vertex="1">
          <mxGeometry x="260" y="220" width="480" height="55" as="geometry" />
        </mxCell>
        <mxCell id="QVEl6gQr9pVJd_JRe7iK-4" value="" style="rounded=0;whiteSpace=wrap;html=1;" parent="1" vertex="1">
          <mxGeometry x="260" y="280" width="480" height="55" as="geometry" />
        </mxCell>
        <mxCell id="QVEl6gQr9pVJd_JRe7iK-5" value="" style="rounded=0;whiteSpace=wrap;html=1;" parent="1" vertex="1">
          <mxGeometry x="260" y="345" width="480" height="55" as="geometry" />
        </mxCell>
        <mxCell id="QVEl6gQr9pVJd_JRe7iK-6" value="..." style="text;html=1;strokeColor=none;fillColor=none;align=center;verticalAlign=middle;whiteSpace=wrap;rounded=0;" parent="1" vertex="1">
          <mxGeometry x="450" y="420" width="60" height="30" as="geometry" />
        </mxCell>
        <mxCell id="QVEl6gQr9pVJd_JRe7iK-7" value="..." style="text;html=1;strokeColor=none;fillColor=none;align=center;verticalAlign=middle;whiteSpace=wrap;rounded=0;fontSize=20;fontStyle=1" parent="1" vertex="1">
          <mxGeometry x="470" y="420" width="60" height="30" as="geometry" />
        </mxCell>
        <mxCell id="QVEl6gQr9pVJd_JRe7iK-8" value="Sản phẩm 1" style="text;html=1;strokeColor=none;fillColor=none;align=center;verticalAlign=middle;whiteSpace=wrap;rounded=0;fontSize=16;fontStyle=1" parent="1" vertex="1">
          <mxGeometry x="280" y="230" width="70" height="30" as="geometry" />
        </mxCell>
        <mxCell id="QVEl6gQr9pVJd_JRe7iK-9" value="Hình 1" style="rounded=0;whiteSpace=wrap;html=1;fontSize=16;fontStyle=1" parent="1" vertex="1">
          <mxGeometry x="400" y="227.5" width="80" height="40" as="geometry" />
        </mxCell>
        <mxCell id="QVEl6gQr9pVJd_JRe7iK-10" value="Xóa" style="rounded=0;whiteSpace=wrap;html=1;fontStyle=1;fontSize=16;" parent="1" vertex="1">
          <mxGeometry x="685" y="227.5" width="50" height="40" as="geometry" />
        </mxCell>
        <mxCell id="QVEl6gQr9pVJd_JRe7iK-11" value="Sửa" style="rounded=0;whiteSpace=wrap;html=1;fontStyle=1;fontSize=16;" parent="1" vertex="1">
          <mxGeometry x="630" y="227.5" width="50" height="40" as="geometry" />
        </mxCell>
        <mxCell id="QVEl6gQr9pVJd_JRe7iK-12" value="Xóa" style="rounded=0;whiteSpace=wrap;html=1;fontStyle=1;fontSize=16;" parent="1" vertex="1">
          <mxGeometry x="685" y="287.5" width="50" height="40" as="geometry" />
        </mxCell>
        <mxCell id="QVEl6gQr9pVJd_JRe7iK-13" value="Sửa" style="rounded=0;whiteSpace=wrap;html=1;fontStyle=1;fontSize=16;" parent="1" vertex="1">
          <mxGeometry x="630" y="287.5" width="50" height="40" as="geometry" />
        </mxCell>
        <mxCell id="QVEl6gQr9pVJd_JRe7iK-14" value="Xóa" style="rounded=0;whiteSpace=wrap;html=1;fontStyle=1;fontSize=16;" parent="1" vertex="1">
          <mxGeometry x="685" y="352.5" width="50" height="40" as="geometry" />
        </mxCell>
        <mxCell id="QVEl6gQr9pVJd_JRe7iK-15" value="Sửa" style="rounded=0;whiteSpace=wrap;html=1;fontStyle=1;fontSize=16;" parent="1" vertex="1">
          <mxGeometry x="630" y="352.5" width="50" height="40" as="geometry" />
        </mxCell>
        <mxCell id="QVEl6gQr9pVJd_JRe7iK-16" value="..." style="text;html=1;strokeColor=none;fillColor=none;align=center;verticalAlign=middle;whiteSpace=wrap;rounded=0;fontSize=20;fontStyle=1" parent="1" vertex="1">
          <mxGeometry x="530" y="232.5" width="60" height="30" as="geometry" />
        </mxCell>
        <mxCell id="QVEl6gQr9pVJd_JRe7iK-17" value="..." style="text;html=1;strokeColor=none;fillColor=none;align=center;verticalAlign=middle;whiteSpace=wrap;rounded=0;fontSize=20;fontStyle=1" parent="1" vertex="1">
          <mxGeometry x="530" y="287.5" width="60" height="30" as="geometry" />
        </mxCell>
        <mxCell id="QVEl6gQr9pVJd_JRe7iK-18" value="..." style="text;html=1;strokeColor=none;fillColor=none;align=center;verticalAlign=middle;whiteSpace=wrap;rounded=0;fontSize=20;fontStyle=1" parent="1" vertex="1">
          <mxGeometry x="530" y="352.5" width="60" height="30" as="geometry" />
        </mxCell>
        <mxCell id="QVEl6gQr9pVJd_JRe7iK-19" value="Sản phẩm 2" style="text;html=1;strokeColor=none;fillColor=none;align=center;verticalAlign=middle;whiteSpace=wrap;rounded=0;fontSize=16;fontStyle=1" parent="1" vertex="1">
          <mxGeometry x="280" y="292.5" width="70" height="30" as="geometry" />
        </mxCell>
        <mxCell id="QVEl6gQr9pVJd_JRe7iK-20" value="Sản phẩm 3" style="text;html=1;strokeColor=none;fillColor=none;align=center;verticalAlign=middle;whiteSpace=wrap;rounded=0;fontSize=16;fontStyle=1" parent="1" vertex="1">
          <mxGeometry x="280" y="357.5" width="70" height="30" as="geometry" />
        </mxCell>
        <mxCell id="QVEl6gQr9pVJd_JRe7iK-21" value="Hình 2" style="rounded=0;whiteSpace=wrap;html=1;fontSize=16;fontStyle=1" parent="1" vertex="1">
          <mxGeometry x="400" y="287.5" width="80" height="40" as="geometry" />
        </mxCell>
        <mxCell id="QVEl6gQr9pVJd_JRe7iK-22" value="Hình 3" style="rounded=0;whiteSpace=wrap;html=1;fontSize=16;fontStyle=1" parent="1" vertex="1">
          <mxGeometry x="400" y="352.5" width="80" height="40" as="geometry" />
        </mxCell>
        <mxCell id="mOKkgHt0DEubrhL7GYPA-2" value="Tìm kiếm" style="rounded=0;whiteSpace=wrap;html=1;fontStyle=1;fontSize=16;" vertex="1" parent="1">
          <mxGeometry x="435" y="160" width="130" height="35" as="geometry" />
        </mxCell>
      </root>
    </mxGraphModel>
  </diagram>
</mxfile>
